<?xml version="1.0" encoding="UTF-8" standalone="no"?>
<!DOCTYPE svg PUBLIC "-//W3C//DTD SVG 1.1//EN"
 "http://www.w3.org/Graphics/SVG/1.1/DTD/svg11.dtd">
<!-- Generated by graphviz version 7.0.2 (20221119.0110)
 -->
<!-- Title: G Pages: 1 -->
<svg width="308pt" height="700pt"
 viewBox="0.00 0.00 308.00 700.00" xmlns="http://www.w3.org/2000/svg" xmlns:xlink="http://www.w3.org/1999/xlink">
<g id="graph0" class="graph" transform="scale(1 1) rotate(0) translate(4 696)">
<title>G</title>
<polygon fill="white" stroke="none" points="-4,4 -4,-696 304,-696 304,4 -4,4"/>
<!-- Input\nmask -->
<g id="node1" class="node">
<title>Input\nmask</title>
<polygon fill="red" stroke="black" points="274.5,-603 232.5,-603 232.5,-607 220.5,-607 220.5,-565 274.5,-565 274.5,-603"/>
<polyline fill="none" stroke="black" points="220.5,-603 232.5,-603"/>
<text text-anchor="middle" x="247.5" y="-587.8" font-family="Times,serif" font-size="14.00">Input</text>
<text text-anchor="middle" x="247.5" y="-572.8" font-family="Times,serif" font-size="14.00">mask</text>
</g>
<!-- Simple\nmapping -->
<g id="node6" class="node">
<title>Simple\nmapping</title>
<polygon fill="lightblue" stroke="black" points="255,-514 190,-514 190,-476 255,-476 255,-514"/>
<text text-anchor="middle" x="222.5" y="-498.8" font-family="Times,serif" font-size="14.00">Simple</text>
<text text-anchor="middle" x="222.5" y="-483.8" font-family="Times,serif" font-size="14.00">mapping</text>
</g>
<!-- Input\nmask&#45;&gt;Simple\nmapping -->
<g id="edge6" class="edge">
<title>Input\nmask&#45;&gt;Simple\nmapping</title>
<path fill="none" stroke="black" d="M242.2,-564.55C238.92,-553.13 234.63,-538.22 230.9,-525.22"/>
<polygon fill="black" stroke="black" points="234.34,-524.52 228.21,-515.88 227.61,-526.46 234.34,-524.52"/>
</g>
<!-- CT\nmapping -->
<g id="node7" class="node">
<title>CT\nmapping</title>
<polygon fill="lightcyan" stroke="black" points="172,-514 107,-514 107,-476 172,-476 172,-514"/>
<text text-anchor="middle" x="139.5" y="-498.8" font-family="Times,serif" font-size="14.00">CT</text>
<text text-anchor="middle" x="139.5" y="-483.8" font-family="Times,serif" font-size="14.00">mapping</text>
</g>
<!-- Input\nmask&#45;&gt;CT\nmapping -->
<g id="edge5" class="edge">
<title>Input\nmask&#45;&gt;CT\nmapping</title>
<path fill="none" stroke="black" d="M235.74,-564.96C228.25,-554.44 217.86,-541.44 206.5,-532 199.13,-525.87 190.55,-520.33 182.04,-515.52"/>
<polygon fill="black" stroke="black" points="183.96,-512.58 173.5,-510.95 180.66,-518.76 183.96,-512.58"/>
</g>
<!-- CT info -->
<g id="node2" class="node">
<title>CT info</title>
<polygon fill="red" stroke="black" points="59,-602 12,-602 12,-606 0,-606 0,-566 59,-566 59,-602"/>
<polyline fill="none" stroke="black" points="0,-602 12,-602"/>
<text text-anchor="middle" x="29.5" y="-580.3" font-family="Times,serif" font-size="14.00">CT info</text>
</g>
<!-- CT info&#45;&gt;CT\nmapping -->
<g id="edge4" class="edge">
<title>CT info&#45;&gt;CT\nmapping</title>
<path fill="none" stroke="black" d="M51.5,-565.6C67.51,-552.94 89.46,-535.58 107.42,-521.37"/>
<polygon fill="black" stroke="black" points="109.55,-524.15 115.22,-515.21 105.2,-518.66 109.55,-524.15"/>
</g>
<!-- CT/ZTE? -->
<g id="node3" class="node">
<title>CT/ZTE?</title>
<polygon fill="yellow" stroke="black" points="139.5,-602 76.99,-584 139.5,-566 202.01,-584 139.5,-602"/>
<text text-anchor="middle" x="139.5" y="-580.3" font-family="Times,serif" font-size="14.00">CT/ZTE?</text>
</g>
<!-- CT/ZTE?&#45;&gt;Simple\nmapping -->
<g id="edge2" class="edge">
<title>CT/ZTE?&#45;&gt;Simple\nmapping</title>
<path fill="none" stroke="black" d="M152.47,-569.41C164.39,-556.91 182.41,-538.02 197.19,-522.53"/>
<polygon fill="black" stroke="black" points="199.58,-525.09 203.95,-515.44 194.52,-520.26 199.58,-525.09"/>
<text text-anchor="middle" x="194" y="-535.8" font-family="Times,serif" font-size="14.00">No</text>
</g>
<!-- CT/ZTE?&#45;&gt;CT\nmapping -->
<g id="edge3" class="edge">
<title>CT/ZTE?&#45;&gt;CT\nmapping</title>
<path fill="none" stroke="black" d="M139.5,-565.81C139.5,-554.32 139.5,-538.91 139.5,-525.49"/>
<polygon fill="black" stroke="black" points="143,-525.87 139.5,-515.87 136,-525.87 143,-525.87"/>
<text text-anchor="middle" x="150" y="-535.8" font-family="Times,serif" font-size="14.00">Yes</text>
</g>
<!-- start -->
<g id="node4" class="node">
<title>start</title>
<ellipse fill="none" stroke="black" cx="139.5" cy="-666" rx="26" ry="26"/>
<text text-anchor="middle" x="139.5" y="-662.3" font-family="Times,serif" font-size="14.00">start</text>
</g>
<!-- start&#45;&gt;CT/ZTE? -->
<g id="edge1" class="edge">
<title>start&#45;&gt;CT/ZTE?</title>
<path fill="none" stroke="black" d="M139.5,-639.69C139.5,-631.35 139.5,-622.02 139.5,-613.46"/>
<polygon fill="black" stroke="black" points="143,-613.58 139.5,-603.58 136,-613.58 143,-613.58"/>
</g>
<!-- Refocusing? -->
<g id="node5" class="node">
<title>Refocusing?</title>
<polygon fill="yellow" stroke="black" points="180.5,-439 103.08,-421 180.5,-403 257.92,-421 180.5,-439"/>
<text text-anchor="middle" x="180.5" y="-417.3" font-family="Times,serif" font-size="14.00">Refocusing?</text>
</g>
<!-- Rayleigh\nBack prop. -->
<g id="node8" class="node">
<title>Rayleigh\nBack prop.</title>
<polygon fill="lightgreen" stroke="black" points="277,-352 200,-352 200,-314 277,-314 277,-352"/>
<text text-anchor="middle" x="238.5" y="-336.8" font-family="Times,serif" font-size="14.00">Rayleigh</text>
<text text-anchor="middle" x="238.5" y="-321.8" font-family="Times,serif" font-size="14.00">Back prop.</text>
</g>
<!-- Refocusing?&#45;&gt;Rayleigh\nBack prop. -->
<g id="edge9" class="edge">
<title>Refocusing?&#45;&gt;Rayleigh\nBack prop.</title>
<path fill="none" stroke="black" d="M190.6,-405.02C198.62,-393.13 210.05,-376.19 219.73,-361.83"/>
<polygon fill="black" stroke="black" points="222.56,-363.9 225.25,-353.65 216.75,-359.98 222.56,-363.9"/>
<text text-anchor="middle" x="223" y="-373.8" font-family="Times,serif" font-size="14.00">Yes</text>
</g>
<!-- Rayleigh\nForward -->
<g id="node10" class="node">
<title>Rayleigh\nForward</title>
<polygon fill="lightblue" stroke="black" points="209,-188 144,-188 144,-150 209,-150 209,-188"/>
<text text-anchor="middle" x="176.5" y="-172.8" font-family="Times,serif" font-size="14.00">Rayleigh</text>
<text text-anchor="middle" x="176.5" y="-157.8" font-family="Times,serif" font-size="14.00">Forward</text>
</g>
<!-- Refocusing?&#45;&gt;Rayleigh\nForward -->
<g id="edge10" class="edge">
<title>Refocusing?&#45;&gt;Rayleigh\nForward</title>
<path fill="none" stroke="black" d="M180.23,-402.82C179.55,-360.75 177.82,-252.22 176.97,-199.55"/>
<polygon fill="black" stroke="black" points="180.48,-199.77 176.82,-189.83 173.48,-199.88 180.48,-199.77"/>
<text text-anchor="middle" x="187" y="-284.8" font-family="Times,serif" font-size="14.00">No</text>
</g>
<!-- Simple\nmapping&#45;&gt;Refocusing? -->
<g id="edge7" class="edge">
<title>Simple\nmapping&#45;&gt;Refocusing?</title>
<path fill="none" stroke="black" d="M211.9,-475.83C206.76,-467.02 200.51,-456.3 194.94,-446.76"/>
<polygon fill="black" stroke="black" points="198.08,-445.19 190.02,-438.31 192.03,-448.71 198.08,-445.19"/>
</g>
<!-- CT\nmapping&#45;&gt;Refocusing? -->
<g id="edge8" class="edge">
<title>CT\nmapping&#45;&gt;Refocusing?</title>
<path fill="none" stroke="black" d="M149.85,-475.83C154.86,-467.02 160.97,-456.3 166.4,-446.76"/>
<polygon fill="black" stroke="black" points="169.3,-448.74 171.21,-438.32 163.22,-445.28 169.3,-448.74"/>
</g>
<!-- FDTD\nbackpropagation -->
<g id="node9" class="node">
<title>FDTD\nbackpropagation</title>
<polygon fill="lightgreen" stroke="black" points="300,-263 193,-263 193,-225 300,-225 300,-263"/>
<text text-anchor="middle" x="246.5" y="-247.8" font-family="Times,serif" font-size="14.00">FDTD</text>
<text text-anchor="middle" x="246.5" y="-232.8" font-family="Times,serif" font-size="14.00">backpropagation</text>
</g>
<!-- Rayleigh\nBack prop.&#45;&gt;FDTD\nbackpropagation -->
<g id="edge11" class="edge">
<title>Rayleigh\nBack prop.&#45;&gt;FDTD\nbackpropagation</title>
<path fill="none" stroke="black" d="M240.2,-313.55C241.24,-302.25 242.59,-287.52 243.78,-274.61"/>
<polygon fill="black" stroke="black" points="247.24,-275.21 244.67,-264.93 240.27,-274.57 247.24,-275.21"/>
</g>
<!-- FDTD\nbackpropagation&#45;&gt;Rayleigh\nForward -->
<g id="edge12" class="edge">
<title>FDTD\nbackpropagation&#45;&gt;Rayleigh\nForward</title>
<path fill="none" stroke="black" d="M228.84,-224.58C220.71,-216.11 210.92,-205.9 202.01,-196.61"/>
<polygon fill="black" stroke="black" points="204.65,-194.3 195.21,-189.51 199.6,-199.15 204.65,-194.3"/>
</g>
<!-- BabelViscoFDTD\nForward -->
<g id="node11" class="node">
<title>BabelViscoFDTD\nForward</title>
<polygon fill="lightblue" stroke="black" points="234,-113 119,-113 119,-75 234,-75 234,-113"/>
<text text-anchor="middle" x="176.5" y="-97.8" font-family="Times,serif" font-size="14.00">BabelViscoFDTD</text>
<text text-anchor="middle" x="176.5" y="-82.8" font-family="Times,serif" font-size="14.00">Forward</text>
</g>
<!-- Rayleigh\nForward&#45;&gt;BabelViscoFDTD\nForward -->
<g id="edge13" class="edge">
<title>Rayleigh\nForward&#45;&gt;BabelViscoFDTD\nForward</title>
<path fill="none" stroke="black" d="M176.5,-149.58C176.5,-142.06 176.5,-133.17 176.5,-124.77"/>
<polygon fill="black" stroke="black" points="180,-124.93 176.5,-114.93 173,-124.93 180,-124.93"/>
</g>
<!-- Acoustic\nmaps -->
<g id="node12" class="node">
<title>Acoustic\nmaps</title>
<polygon fill="purple" stroke="black" points="209,-38 156,-38 156,-42 144,-42 144,0 209,0 209,-38"/>
<polyline fill="none" stroke="black" points="144,-38 156,-38"/>
<text text-anchor="middle" x="176.5" y="-22.8" font-family="Times,serif" font-size="14.00" fill="yellow">Acoustic</text>
<text text-anchor="middle" x="176.5" y="-7.8" font-family="Times,serif" font-size="14.00" fill="yellow">maps</text>
</g>
<!-- BabelViscoFDTD\nForward&#45;&gt;Acoustic\nmaps -->
<g id="edge14" class="edge">
<title>BabelViscoFDTD\nForward&#45;&gt;Acoustic\nmaps</title>
<path fill="none" stroke="black" d="M176.5,-74.58C176.5,-67.06 176.5,-58.17 176.5,-49.77"/>
<polygon fill="black" stroke="black" points="180,-49.93 176.5,-39.93 173,-49.93 180,-49.93"/>
</g>
</g>
</svg>
