<?xml version="1.0" encoding="UTF-8" standalone="no"?>
<!DOCTYPE svg PUBLIC "-//W3C//DTD SVG 1.1//EN"
 "http://www.w3.org/Graphics/SVG/1.1/DTD/svg11.dtd">
<!-- Generated by graphviz version 7.0.2 (20221119.0110)
 -->
<!-- Title: G Pages: 1 -->
<svg width="580pt" height="898pt"
 viewBox="0.00 0.00 580.33 898.00" xmlns="http://www.w3.org/2000/svg" xmlns:xlink="http://www.w3.org/1999/xlink">
<g id="graph0" class="graph" transform="scale(1 1) rotate(0) translate(4 894)">
<title>G</title>
<polygon fill="white" stroke="none" points="-4,4 -4,-894 576.33,-894 576.33,4 -4,4"/>
<!-- SimNIBS -->
<g id="node1" class="node">
<title>SimNIBS</title>
<polygon fill="red" stroke="black" points="82.5,-882 24.5,-882 24.5,-886 12.5,-886 12.5,-846 82.5,-846 82.5,-882"/>
<polyline fill="none" stroke="black" points="12.5,-882 24.5,-882"/>
<text text-anchor="middle" x="47.5" y="-860.3" font-family="Times,serif" font-size="14.00">SimNIBS</text>
</g>
<!-- Surface recon. -->
<g id="node15" class="node">
<title>Surface recon.</title>
<polygon fill="lightblue" stroke="black" points="95,-801 0,-801 0,-765 95,-765 95,-801"/>
<text text-anchor="middle" x="47.5" y="-779.3" font-family="Times,serif" font-size="14.00">Surface recon.</text>
</g>
<!-- SimNIBS&#45;&gt;Surface recon. -->
<g id="edge16" class="edge">
<title>SimNIBS&#45;&gt;Surface recon.</title>
<path fill="none" stroke="black" d="M47.5,-845.86C47.5,-836.19 47.5,-823.87 47.5,-812.76"/>
<polygon fill="black" stroke="black" points="51,-812.89 47.5,-802.89 44,-812.89 51,-812.89"/>
</g>
<!-- Trajectory -->
<g id="node2" class="node">
<title>Trajectory</title>
<polygon fill="red" stroke="black" points="186,-801 125,-801 125,-805 113,-805 113,-765 186,-765 186,-801"/>
<polyline fill="none" stroke="black" points="113,-801 125,-801"/>
<text text-anchor="middle" x="149.5" y="-779.3" font-family="Times,serif" font-size="14.00">Trajectory</text>
</g>
<!-- 3D realignment -->
<g id="node14" class="node">
<title>3D realignment</title>
<polygon fill="lightblue" stroke="black" points="211.5,-713 109.5,-713 109.5,-677 211.5,-677 211.5,-713"/>
<text text-anchor="middle" x="160.5" y="-691.3" font-family="Times,serif" font-size="14.00">3D realignment</text>
</g>
<!-- Trajectory&#45;&gt;3D realignment -->
<g id="edge12" class="edge">
<title>Trajectory&#45;&gt;3D realignment</title>
<path fill="none" stroke="black" d="M151.73,-764.6C153.19,-753.17 155.13,-737.96 156.82,-724.76"/>
<polygon fill="black" stroke="black" points="160.29,-725.24 158.09,-714.88 153.34,-724.35 160.29,-725.24"/>
</g>
<!-- T1W -->
<g id="node3" class="node">
<title>T1W</title>
<polygon fill="red" stroke="black" points="368.5,-801 326.5,-801 326.5,-805 314.5,-805 314.5,-765 368.5,-765 368.5,-801"/>
<polyline fill="none" stroke="black" points="314.5,-801 326.5,-801"/>
<text text-anchor="middle" x="341.5" y="-779.3" font-family="Times,serif" font-size="14.00">T1W</text>
</g>
<!-- Bias correc.\nT1W -->
<g id="node6" class="node">
<title>Bias correc.\nT1W</title>
<polygon fill="lightgreen" stroke="black" points="486.5,-714 404.5,-714 404.5,-676 486.5,-676 486.5,-714"/>
<text text-anchor="middle" x="445.5" y="-698.8" font-family="Times,serif" font-size="14.00">Bias correc.</text>
<text text-anchor="middle" x="445.5" y="-683.8" font-family="Times,serif" font-size="14.00">T1W</text>
</g>
<!-- T1W&#45;&gt;Bias correc.\nT1W -->
<g id="edge1" class="edge">
<title>T1W&#45;&gt;Bias correc.\nT1W</title>
<path fill="none" stroke="black" d="M354.98,-764.63C363.4,-754.44 374.82,-741.7 386.5,-732 391.29,-728.02 396.56,-724.18 401.92,-720.58"/>
<polygon fill="black" stroke="black" points="403.78,-723.55 410.31,-715.2 400,-717.65 403.78,-723.55"/>
</g>
<!-- T1W&#45;&gt;3D realignment -->
<g id="edge13" class="edge">
<title>T1W&#45;&gt;3D realignment</title>
<path fill="none" stroke="black" d="M314.01,-768.94C285.69,-755.48 241.02,-734.26 207.16,-718.17"/>
<polygon fill="black" stroke="black" points="208.93,-715.13 198.39,-714 205.92,-721.46 208.93,-715.13"/>
</g>
<!-- CT -->
<g id="node4" class="node">
<title>CT</title>
<polygon fill="red" stroke="black" points="386.5,-713 344.5,-713 344.5,-717 332.5,-717 332.5,-677 386.5,-677 386.5,-713"/>
<polyline fill="none" stroke="black" points="332.5,-713 344.5,-713"/>
<text text-anchor="middle" x="359.5" y="-691.3" font-family="Times,serif" font-size="14.00">CT</text>
</g>
<!-- Upscaling\nto CT res. -->
<g id="node8" class="node">
<title>Upscaling\nto CT res.</title>
<polygon fill="lightgreen" stroke="black" points="459,-639 388,-639 388,-601 459,-601 459,-639"/>
<text text-anchor="middle" x="423.5" y="-623.8" font-family="Times,serif" font-size="14.00">Upscaling</text>
<text text-anchor="middle" x="423.5" y="-608.8" font-family="Times,serif" font-size="14.00">to CT res.</text>
</g>
<!-- CT&#45;&gt;Upscaling\nto CT res. -->
<g id="edge8" class="edge">
<title>CT&#45;&gt;Upscaling\nto CT res.</title>
<path fill="none" stroke="black" d="M374.67,-676.7C382.2,-668.11 391.46,-657.54 399.89,-647.93"/>
<polygon fill="black" stroke="black" points="402.36,-650.42 406.33,-640.59 397.1,-645.8 402.36,-650.42"/>
</g>
<!-- Coregistration\nCT&#45;&gt;T1W -->
<g id="node9" class="node">
<title>Coregistration\nCT&#45;&gt;T1W</title>
<polygon fill="lightgreen" stroke="black" points="407.5,-564 313.5,-564 313.5,-526 407.5,-526 407.5,-564"/>
<text text-anchor="middle" x="360.5" y="-548.8" font-family="Times,serif" font-size="14.00">Coregistration</text>
<text text-anchor="middle" x="360.5" y="-533.8" font-family="Times,serif" font-size="14.00">CT&#45;&gt;T1W</text>
</g>
<!-- CT&#45;&gt;Coregistration\nCT&#45;&gt;T1W -->
<g id="edge7" class="edge">
<title>CT&#45;&gt;Coregistration\nCT&#45;&gt;T1W</title>
<path fill="none" stroke="black" d="M359.62,-676.73C359.78,-651.83 360.1,-605.49 360.3,-575.2"/>
<polygon fill="black" stroke="black" points="363.8,-575.62 360.37,-565.59 356.8,-575.57 363.8,-575.62"/>
</g>
<!-- ZTE -->
<g id="node5" class="node">
<title>ZTE</title>
<polygon fill="red" stroke="black" points="296.5,-801 254.5,-801 254.5,-805 242.5,-805 242.5,-765 296.5,-765 296.5,-801"/>
<polyline fill="none" stroke="black" points="242.5,-801 254.5,-801"/>
<text text-anchor="middle" x="269.5" y="-779.3" font-family="Times,serif" font-size="14.00">ZTE</text>
</g>
<!-- Bias correc.\nZTE -->
<g id="node7" class="node">
<title>Bias correc.\nZTE</title>
<polygon fill="lightcyan" stroke="black" points="311.5,-714 229.5,-714 229.5,-676 311.5,-676 311.5,-714"/>
<text text-anchor="middle" x="270.5" y="-698.8" font-family="Times,serif" font-size="14.00">Bias correc.</text>
<text text-anchor="middle" x="270.5" y="-683.8" font-family="Times,serif" font-size="14.00">ZTE</text>
</g>
<!-- ZTE&#45;&gt;Bias correc.\nZTE -->
<g id="edge9" class="edge">
<title>ZTE&#45;&gt;Bias correc.\nZTE</title>
<path fill="none" stroke="black" d="M269.7,-764.6C269.83,-753.4 270.01,-738.56 270.16,-725.55"/>
<polygon fill="black" stroke="black" points="273.65,-725.82 270.27,-715.78 266.65,-725.74 273.65,-725.82"/>
</g>
<!-- Bias correc.\nT1W&#45;&gt;Upscaling\nto CT res. -->
<g id="edge5" class="edge">
<title>Bias correc.\nT1W&#45;&gt;Upscaling\nto CT res.</title>
<path fill="none" stroke="black" d="M439.95,-675.58C437.63,-667.88 434.88,-658.76 432.3,-650.19"/>
<polygon fill="black" stroke="black" points="435.72,-649.43 429.49,-640.86 429.02,-651.45 435.72,-649.43"/>
</g>
<!-- Coregistration\nZTE&#45;&gt;T1W -->
<g id="node10" class="node">
<title>Coregistration\nZTE&#45;&gt;T1W</title>
<polygon fill="lightcyan" stroke="black" points="305.5,-639 211.5,-639 211.5,-601 305.5,-601 305.5,-639"/>
<text text-anchor="middle" x="258.5" y="-623.8" font-family="Times,serif" font-size="14.00">Coregistration</text>
<text text-anchor="middle" x="258.5" y="-608.8" font-family="Times,serif" font-size="14.00">ZTE&#45;&gt;T1W</text>
</g>
<!-- Bias correc.\nZTE&#45;&gt;Coregistration\nZTE&#45;&gt;T1W -->
<g id="edge10" class="edge">
<title>Bias correc.\nZTE&#45;&gt;Coregistration\nZTE&#45;&gt;T1W</title>
<path fill="none" stroke="black" d="M267.47,-675.58C266.24,-668.06 264.77,-659.17 263.39,-650.77"/>
<polygon fill="black" stroke="black" points="266.85,-650.21 261.77,-640.91 259.94,-651.34 266.85,-650.21"/>
</g>
<!-- Upscaling\nto CT res.&#45;&gt;Coregistration\nCT&#45;&gt;T1W -->
<g id="edge6" class="edge">
<title>Upscaling\nto CT res.&#45;&gt;Coregistration\nCT&#45;&gt;T1W</title>
<path fill="none" stroke="black" d="M407.6,-600.58C400.37,-592.19 391.66,-582.1 383.71,-572.89"/>
<polygon fill="black" stroke="black" points="386.56,-570.84 377.38,-565.56 381.27,-575.42 386.56,-570.84"/>
</g>
<!-- Surface CT -->
<g id="node20" class="node">
<title>Surface CT</title>
<polygon fill="lightgreen" stroke="black" points="293,-454 214,-454 214,-418 293,-418 293,-454"/>
<text text-anchor="middle" x="253.5" y="-432.3" font-family="Times,serif" font-size="14.00">Surface CT</text>
</g>
<!-- Coregistration\nCT&#45;&gt;T1W&#45;&gt;Surface CT -->
<g id="edge20" class="edge">
<title>Coregistration\nCT&#45;&gt;T1W&#45;&gt;Surface CT</title>
<path fill="none" stroke="black" d="M342.35,-525.85C324.82,-508.32 298.13,-481.63 278.57,-462.07"/>
<polygon fill="black" stroke="black" points="281.29,-459.84 271.75,-455.25 276.34,-464.79 281.29,-459.84"/>
</g>
<!-- ZTE to pCT -->
<g id="node11" class="node">
<title>ZTE to pCT</title>
<polygon fill="lightcyan" stroke="black" points="295,-563 212,-563 212,-527 295,-527 295,-563"/>
<text text-anchor="middle" x="253.5" y="-541.3" font-family="Times,serif" font-size="14.00">ZTE to pCT</text>
</g>
<!-- Coregistration\nZTE&#45;&gt;T1W&#45;&gt;ZTE to pCT -->
<g id="edge11" class="edge">
<title>Coregistration\nZTE&#45;&gt;T1W&#45;&gt;ZTE to pCT</title>
<path fill="none" stroke="black" d="M257.24,-600.58C256.7,-592.74 256.06,-583.41 255.47,-574.7"/>
<polygon fill="black" stroke="black" points="258.97,-574.66 254.8,-564.92 251.99,-575.14 258.97,-574.66"/>
</g>
<!-- ZTE to pCT&#45;&gt;Surface CT -->
<g id="edge21" class="edge">
<title>ZTE to pCT&#45;&gt;Surface CT</title>
<path fill="none" stroke="black" d="M253.5,-526.81C253.5,-510.27 253.5,-484.98 253.5,-465.44"/>
<polygon fill="black" stroke="black" points="257,-465.66 253.5,-455.66 250,-465.66 257,-465.66"/>
</g>
<!-- CT/ZTE/None? -->
<g id="node12" class="node">
<title>CT/ZTE/None?</title>
<polygon fill="yellow" stroke="black" points="479.5,-801 386.83,-783 479.5,-765 572.17,-783 479.5,-801"/>
<text text-anchor="middle" x="479.5" y="-779.3" font-family="Times,serif" font-size="14.00">CT/ZTE/None?</text>
</g>
<!-- CT/ZTE/None?&#45;&gt;Bias correc.\nT1W -->
<g id="edge3" class="edge">
<title>CT/ZTE/None?&#45;&gt;Bias correc.\nT1W</title>
<path fill="none" stroke="black" d="M473.1,-765.82C468.55,-754.31 462.31,-738.51 456.91,-724.86"/>
<polygon fill="black" stroke="black" points="460.3,-723.91 453.37,-715.9 453.79,-726.49 460.3,-723.91"/>
<text text-anchor="middle" x="474.5" y="-735.8" font-family="Times,serif" font-size="14.00">CT</text>
</g>
<!-- CT/ZTE/None?&#45;&gt;Bias correc.\nZTE -->
<g id="edge4" class="edge">
<title>CT/ZTE/None?&#45;&gt;Bias correc.\nZTE</title>
<path fill="none" stroke="black" d="M450.88,-770.22C417.83,-756.62 362.82,-733.99 322.22,-717.28"/>
<polygon fill="black" stroke="black" points="323.69,-714.1 313.11,-713.53 321.03,-720.58 323.69,-714.1"/>
<text text-anchor="middle" x="406" y="-735.8" font-family="Times,serif" font-size="14.00">ZTE</text>
</g>
<!-- start -->
<g id="node13" class="node">
<title>start</title>
<ellipse fill="none" stroke="black" cx="214.5" cy="-864" rx="26" ry="26"/>
<text text-anchor="middle" x="214.5" y="-860.3" font-family="Times,serif" font-size="14.00">start</text>
</g>
<!-- start&#45;&gt;CT/ZTE/None? -->
<g id="edge2" class="edge">
<title>start&#45;&gt;CT/ZTE/None?</title>
<path fill="none" stroke="black" d="M239.43,-855.57C283.76,-842.35 376.92,-814.58 433.27,-797.78"/>
<polygon fill="black" stroke="black" points="433.99,-801.22 442.57,-795.01 431.99,-794.51 433.99,-801.22"/>
</g>
<!-- start&#45;&gt;3D realignment -->
<g id="edge14" class="edge">
<title>start&#45;&gt;3D realignment</title>
<path fill="none" stroke="black" d="M211.2,-837.96C208.13,-817.88 202.76,-789.15 194.5,-765 189.65,-750.83 182.53,-735.83 176.05,-723.45"/>
<polygon fill="black" stroke="black" points="179.14,-721.81 171.32,-714.67 172.98,-725.13 179.14,-721.81"/>
</g>
<!-- start&#45;&gt;Surface recon. -->
<g id="edge15" class="edge">
<title>start&#45;&gt;Surface recon.</title>
<path fill="none" stroke="black" d="M191.28,-852.01C166.4,-840.24 126.23,-821.24 94.66,-806.31"/>
<polygon fill="black" stroke="black" points="96.23,-803.18 85.69,-802.07 93.23,-809.51 96.23,-803.18"/>
</g>
<!-- Voxelization -->
<g id="node16" class="node">
<title>Voxelization</title>
<polygon fill="lightblue" stroke="black" points="137,-638 52,-638 52,-602 137,-602 137,-638"/>
<text text-anchor="middle" x="94.5" y="-616.3" font-family="Times,serif" font-size="14.00">Voxelization</text>
</g>
<!-- 3D realignment&#45;&gt;Voxelization -->
<g id="edge25" class="edge">
<title>3D realignment&#45;&gt;Voxelization</title>
<path fill="none" stroke="black" d="M144.86,-676.7C136.78,-667.76 126.76,-656.68 117.79,-646.76"/>
<polygon fill="black" stroke="black" points="120.58,-644.62 111.27,-639.55 115.38,-649.32 120.58,-644.62"/>
</g>
<!-- Voxelization CT -->
<g id="node22" class="node">
<title>Voxelization CT</title>
<polygon fill="lightgreen" stroke="black" points="283.5,-346 177.5,-346 177.5,-310 283.5,-310 283.5,-346"/>
<text text-anchor="middle" x="230.5" y="-324.3" font-family="Times,serif" font-size="14.00">Voxelization CT</text>
</g>
<!-- 3D realignment&#45;&gt;Voxelization CT -->
<g id="edge26" class="edge">
<title>3D realignment&#45;&gt;Voxelization CT</title>
<path fill="none" stroke="black" d="M163.85,-676.67C166.41,-661.92 169.5,-640.15 169.5,-621 169.5,-621 169.5,-621 169.5,-435 169.5,-404.62 188.56,-375.09 205.37,-354.94"/>
<polygon fill="black" stroke="black" points="207.91,-357.35 211.86,-347.52 202.64,-352.74 207.91,-357.35"/>
</g>
<!-- Surface recon.&#45;&gt;Voxelization -->
<g id="edge17" class="edge">
<title>Surface recon.&#45;&gt;Voxelization</title>
<path fill="none" stroke="black" d="M52.53,-764.77C60.62,-737.05 76.61,-682.29 86.35,-648.93"/>
<polygon fill="black" stroke="black" points="89.64,-650.14 89.08,-639.56 82.92,-648.18 89.64,-650.14"/>
</g>
<!-- Median filter -->
<g id="node17" class="node">
<title>Median filter</title>
<polygon fill="lightblue" stroke="black" points="139,-508 50,-508 50,-472 139,-472 139,-508"/>
<text text-anchor="middle" x="94.5" y="-486.3" font-family="Times,serif" font-size="14.00">Median filter</text>
</g>
<!-- Voxelization&#45;&gt;Median filter -->
<g id="edge18" class="edge">
<title>Voxelization&#45;&gt;Median filter</title>
<path fill="none" stroke="black" d="M94.5,-601.74C94.5,-580.74 94.5,-545 94.5,-519.81"/>
<polygon fill="black" stroke="black" points="98,-519.91 94.5,-509.91 91,-519.91 98,-519.91"/>
</g>
<!-- Mask extraction -->
<g id="node18" class="node">
<title>Mask extraction</title>
<polygon fill="lightblue" stroke="black" points="147,-400 42,-400 42,-364 147,-364 147,-400"/>
<text text-anchor="middle" x="94.5" y="-378.3" font-family="Times,serif" font-size="14.00">Mask extraction</text>
</g>
<!-- Median filter&#45;&gt;Mask extraction -->
<g id="edge19" class="edge">
<title>Median filter&#45;&gt;Mask extraction</title>
<path fill="none" stroke="black" d="M94.5,-471.97C94.5,-455.76 94.5,-431.06 94.5,-411.79"/>
<polygon fill="black" stroke="black" points="98,-411.85 94.5,-401.85 91,-411.85 98,-411.85"/>
</g>
<!-- CT/ZTE? -->
<g id="node23" class="node">
<title>CT/ZTE?</title>
<polygon fill="yellow" stroke="black" points="94.5,-273 31.99,-255 94.5,-237 157.01,-255 94.5,-273"/>
<text text-anchor="middle" x="94.5" y="-251.3" font-family="Times,serif" font-size="14.00">CT/ZTE?</text>
</g>
<!-- Mask extraction&#45;&gt;CT/ZTE? -->
<g id="edge27" class="edge">
<title>Mask extraction&#45;&gt;CT/ZTE?</title>
<path fill="none" stroke="black" d="M94.5,-363.62C94.5,-343.19 94.5,-308.99 94.5,-284.62"/>
<polygon fill="black" stroke="black" points="98,-284.75 94.5,-274.75 91,-284.75 98,-284.75"/>
</g>
<!-- Mask refinement -->
<g id="node19" class="node">
<title>Mask refinement</title>
<polygon fill="lightgreen" stroke="black" points="236.5,-186 126.5,-186 126.5,-150 236.5,-150 236.5,-186"/>
<text text-anchor="middle" x="181.5" y="-164.3" font-family="Times,serif" font-size="14.00">Mask refinement</text>
</g>
<!-- Final mask\ngeneration -->
<g id="node24" class="node">
<title>Final mask\ngeneration</title>
<polygon fill="lightblue" stroke="black" points="145,-113 68,-113 68,-75 145,-75 145,-113"/>
<text text-anchor="middle" x="106.5" y="-97.8" font-family="Times,serif" font-size="14.00">Final mask</text>
<text text-anchor="middle" x="106.5" y="-82.8" font-family="Times,serif" font-size="14.00">generation</text>
</g>
<!-- Mask refinement&#45;&gt;Final mask\ngeneration -->
<g id="edge29" class="edge">
<title>Mask refinement&#45;&gt;Final mask\ngeneration</title>
<path fill="none" stroke="black" d="M163.34,-149.57C154.49,-141.07 143.66,-130.67 133.83,-121.24"/>
<polygon fill="black" stroke="black" points="136.26,-118.72 126.63,-114.32 131.42,-123.77 136.26,-118.72"/>
</g>
<!-- Surface CT&#45;&gt;Voxelization CT -->
<g id="edge22" class="edge">
<title>Surface CT&#45;&gt;Voxelization CT</title>
<path fill="none" stroke="black" d="M249.8,-417.97C246.27,-401.69 240.88,-376.82 236.69,-357.52"/>
<polygon fill="black" stroke="black" points="240.12,-356.85 234.58,-347.82 233.28,-358.33 240.12,-356.85"/>
</g>
<!-- Median filter CT -->
<g id="node21" class="node">
<title>Median filter CT</title>
<polygon fill="lightgreen" stroke="black" points="285.5,-273 175.5,-273 175.5,-237 285.5,-237 285.5,-273"/>
<text text-anchor="middle" x="230.5" y="-251.3" font-family="Times,serif" font-size="14.00">Median filter CT</text>
</g>
<!-- Median filter CT&#45;&gt;Mask refinement -->
<g id="edge24" class="edge">
<title>Median filter CT&#45;&gt;Mask refinement</title>
<path fill="none" stroke="black" d="M220.58,-236.8C213.85,-225.12 204.82,-209.45 197.13,-196.11"/>
<polygon fill="black" stroke="black" points="200.35,-194.69 192.33,-187.78 194.29,-198.19 200.35,-194.69"/>
</g>
<!-- Voxelization CT&#45;&gt;Median filter CT -->
<g id="edge23" class="edge">
<title>Voxelization CT&#45;&gt;Median filter CT</title>
<path fill="none" stroke="black" d="M230.5,-309.81C230.5,-302.23 230.5,-293.1 230.5,-284.54"/>
<polygon fill="black" stroke="black" points="234,-284.54 230.5,-274.54 227,-284.54 234,-284.54"/>
</g>
<!-- CT/ZTE?&#45;&gt;Mask refinement -->
<g id="edge28" class="edge">
<title>CT/ZTE?&#45;&gt;Mask refinement</title>
<path fill="none" stroke="black" d="M108.09,-240.72C120.76,-228.35 139.97,-209.58 155.56,-194.34"/>
<polygon fill="black" stroke="black" points="158,-196.85 162.71,-187.36 153.11,-191.85 158,-196.85"/>
<text text-anchor="middle" x="153" y="-207.8" font-family="Times,serif" font-size="14.00">yes</text>
</g>
<!-- CT/ZTE?&#45;&gt;Final mask\ngeneration -->
<g id="edge30" class="edge">
<title>CT/ZTE?&#45;&gt;Final mask\ngeneration</title>
<path fill="none" stroke="black" d="M95.78,-236.98C97.81,-210.16 101.77,-157.68 104.27,-124.59"/>
<polygon fill="black" stroke="black" points="107.74,-125.1 105,-114.87 100.76,-124.57 107.74,-125.1"/>
<text text-anchor="middle" x="109.5" y="-164.3" font-family="Times,serif" font-size="14.00">no</text>
</g>
<!-- Masks for\nsimulation -->
<g id="node25" class="node">
<title>Masks for\nsimulation</title>
<polygon fill="purple" stroke="black" points="143.5,-38 81.5,-38 81.5,-42 69.5,-42 69.5,0 143.5,0 143.5,-38"/>
<polyline fill="none" stroke="black" points="69.5,-38 81.5,-38"/>
<text text-anchor="middle" x="106.5" y="-22.8" font-family="Times,serif" font-size="14.00" fill="yellow">Masks for</text>
<text text-anchor="middle" x="106.5" y="-7.8" font-family="Times,serif" font-size="14.00" fill="yellow">simulation</text>
</g>
<!-- Final mask\ngeneration&#45;&gt;Masks for\nsimulation -->
<g id="edge31" class="edge">
<title>Final mask\ngeneration&#45;&gt;Masks for\nsimulation</title>
<path fill="none" stroke="black" d="M106.5,-74.58C106.5,-67.06 106.5,-58.17 106.5,-49.77"/>
<polygon fill="black" stroke="black" points="110,-49.93 106.5,-39.93 103,-49.93 110,-49.93"/>
</g>
</g>
</svg>
