<?xml version="1.0" encoding="UTF-8" standalone="no"?>
<!DOCTYPE svg PUBLIC "-//W3C//DTD SVG 1.1//EN"
 "http://www.w3.org/Graphics/SVG/1.1/DTD/svg11.dtd">
<!-- Generated by graphviz version 7.0.2 (20221119.0110)
 -->
<!-- Title: G Pages: 1 -->
<svg width="267pt" height="281pt"
 viewBox="0.00 0.00 267.50 281.00" xmlns="http://www.w3.org/2000/svg" xmlns:xlink="http://www.w3.org/1999/xlink">
<g id="graph0" class="graph" transform="scale(1 1) rotate(0) translate(4 277)">
<title>G</title>
<polygon fill="white" stroke="none" points="-4,4 -4,-277 263.5,-277 263.5,4 -4,4"/>
<!-- Thermal\nprofiles -->
<g id="node1" class="node">
<title>Thermal\nprofiles</title>
<polygon fill="red" stroke="black" points="63,-265.5 12,-265.5 12,-269.5 0,-269.5 0,-227.5 63,-227.5 63,-265.5"/>
<polyline fill="none" stroke="black" points="0,-265.5 12,-265.5"/>
<text text-anchor="middle" x="31.5" y="-250.3" font-family="Times,serif" font-size="14.00">Thermal</text>
<text text-anchor="middle" x="31.5" y="-235.3" font-family="Times,serif" font-size="14.00">profiles</text>
</g>
<!-- Calibration\nwater&#45;skull -->
<g id="node5" class="node">
<title>Calibration\nwater&#45;skull</title>
<polygon fill="lightblue" stroke="black" points="174,-184 97,-184 97,-146 174,-146 174,-184"/>
<text text-anchor="middle" x="135.5" y="-168.8" font-family="Times,serif" font-size="14.00">Calibration</text>
<text text-anchor="middle" x="135.5" y="-153.8" font-family="Times,serif" font-size="14.00">water&#45;skull</text>
</g>
<!-- Thermal\nprofiles&#45;&gt;Calibration\nwater&#45;skull -->
<g id="edge2" class="edge">
<title>Thermal\nprofiles&#45;&gt;Calibration\nwater&#45;skull</title>
<path fill="none" stroke="black" d="M55.62,-227.06C69.53,-216.43 87.23,-202.9 102.43,-191.28"/>
<polygon fill="black" stroke="black" points="104.49,-194.11 110.31,-185.26 100.24,-188.55 104.49,-194.11"/>
</g>
<!-- Acoustic\nfields\n(skull and water) -->
<g id="node2" class="node">
<title>Acoustic\nfields\n(skull and water)</title>
<polygon fill="red" stroke="black" points="190,-273 93,-273 93,-277 81,-277 81,-220 190,-220 190,-273"/>
<polyline fill="none" stroke="black" points="81,-273 93,-273"/>
<text text-anchor="middle" x="135.5" y="-257.8" font-family="Times,serif" font-size="14.00">Acoustic</text>
<text text-anchor="middle" x="135.5" y="-242.8" font-family="Times,serif" font-size="14.00">fields</text>
<text text-anchor="middle" x="135.5" y="-227.8" font-family="Times,serif" font-size="14.00">(skull and water)</text>
</g>
<!-- Acoustic\nfields\n(skull and water)&#45;&gt;Calibration\nwater&#45;skull -->
<g id="edge3" class="edge">
<title>Acoustic\nfields\n(skull and water)&#45;&gt;Calibration\nwater&#45;skull</title>
<path fill="none" stroke="black" d="M135.5,-219.91C135.5,-212.25 135.5,-203.79 135.5,-195.88"/>
<polygon fill="black" stroke="black" points="139,-196 135.5,-186 132,-196 139,-196"/>
</g>
<!-- start -->
<g id="node3" class="node">
<title>start</title>
<ellipse fill="none" stroke="black" cx="233.5" cy="-246.5" rx="26" ry="26"/>
<text text-anchor="middle" x="233.5" y="-242.8" font-family="Times,serif" font-size="14.00">start</text>
</g>
<!-- start&#45;&gt;Calibration\nwater&#45;skull -->
<g id="edge1" class="edge">
<title>start&#45;&gt;Calibration\nwater&#45;skull</title>
<path fill="none" stroke="black" d="M213.67,-229.41C200.2,-218.49 182.12,-203.82 166.73,-191.34"/>
<polygon fill="black" stroke="black" points="169.19,-188.82 159.22,-185.24 164.78,-194.26 169.19,-188.82"/>
</g>
<!-- BHTE -->
<g id="node4" class="node">
<title>BHTE</title>
<polygon fill="lightblue" stroke="black" points="162.5,-110 108.5,-110 108.5,-74 162.5,-74 162.5,-110"/>
<text text-anchor="middle" x="135.5" y="-88.3" font-family="Times,serif" font-size="14.00">BHTE</text>
</g>
<!-- Thermal\nmaps -->
<g id="node6" class="node">
<title>Thermal\nmaps</title>
<polygon fill="purple" stroke="black" points="123,-38 72,-38 72,-42 60,-42 60,0 123,0 123,-38"/>
<polyline fill="none" stroke="black" points="60,-38 72,-38"/>
<text text-anchor="middle" x="91.5" y="-22.8" font-family="Times,serif" font-size="14.00" fill="yellow">Thermal</text>
<text text-anchor="middle" x="91.5" y="-7.8" font-family="Times,serif" font-size="14.00" fill="yellow">maps</text>
</g>
<!-- BHTE&#45;&gt;Thermal\nmaps -->
<g id="edge5" class="edge">
<title>BHTE&#45;&gt;Thermal\nmaps</title>
<path fill="none" stroke="black" d="M124.85,-73.81C120.01,-66 114.16,-56.56 108.72,-47.78"/>
<polygon fill="black" stroke="black" points="111.86,-46.21 103.62,-39.56 105.91,-49.9 111.86,-46.21"/>
</g>
<!-- Calibration\ninfo -->
<g id="node7" class="node">
<title>Calibration\ninfo</title>
<polygon fill="purple" stroke="black" points="218,-38 153,-38 153,-42 141,-42 141,0 218,0 218,-38"/>
<polyline fill="none" stroke="black" points="141,-38 153,-38"/>
<text text-anchor="middle" x="179.5" y="-22.8" font-family="Times,serif" font-size="14.00" fill="yellow">Calibration</text>
<text text-anchor="middle" x="179.5" y="-7.8" font-family="Times,serif" font-size="14.00" fill="yellow">info</text>
</g>
<!-- BHTE&#45;&gt;Calibration\ninfo -->
<g id="edge6" class="edge">
<title>BHTE&#45;&gt;Calibration\ninfo</title>
<path fill="none" stroke="black" d="M146.15,-73.81C150.99,-66 156.84,-56.56 162.28,-47.78"/>
<polygon fill="black" stroke="black" points="165.09,-49.9 167.38,-39.56 159.14,-46.21 165.09,-49.9"/>
</g>
<!-- Calibration\nwater&#45;skull&#45;&gt;BHTE -->
<g id="edge4" class="edge">
<title>Calibration\nwater&#45;skull&#45;&gt;BHTE</title>
<path fill="none" stroke="black" d="M135.5,-145.72C135.5,-138.43 135.5,-129.86 135.5,-121.78"/>
<polygon fill="black" stroke="black" points="139,-122 135.5,-112 132,-122 139,-122"/>
</g>
</g>
</svg>
